<?xml version="1.0" encoding="utf-8" ?>
<svg baseProfile="full" height="431.0" version="1.1" width="425.0" xmlns="http://www.w3.org/2000/svg" xmlns:ev="http://www.w3.org/2001/xml-events" xmlns:xlink="http://www.w3.org/1999/xlink"><defs /><rect fill="white" height="431.0" width="425.0" x="0" y="0" /><path d="M286.0,99.0 m-18.0,13.0 l-8.0,13.0 -4.0,13.0 l0.0,33.0 10.0,12.0 l15.0,9.0 20.0,5.0 l22.0,0.0 25.0,-5.0 l34.0,-21.0 10.0,-14.0 l3.0,-13.0 -1.0,-15.0 l-12.0,-12.0 -21.0,-10.0 l-26.0,-7.0 -52.0,2.0 l-22.0,9.0 m-14.0,33.0 l-74.0,7.0 -68.0,12.0 l-29.0,10.0 -24.0,14.0 l-18.0,15.0 -8.0,15.0 l-1.0,18.0 6.0,20.0 l18.0,15.0 27.0,13.0 l34.0,4.0 38.0,0.0 l39.0,-7.0 35.0,-15.0 l49.0,-29.0 m-185.0,2.0 l-10.0,11.0 -9.0,26.0 l-31.0,118.0 m70.0,-131.0 l-5.0,12.0 -10.0,59.0 l-4.0,73.0 m129.0,-137.0 l-7.0,28.0 -1.0,101.0 m47.0,-157.0 l1.0,39.0 15.0,69.0 l3.0,28.0 m35.0,-230.0 l0.0,0.0 m74.0,-12.0 l-4.0,-4.0 m-71.0,7.0 l-1.0,8.0 8.0,12.0 m-65.0,-20.0 l-3.0,-93.0 36.0,56.0 m86.0,9.0 l3.0,-35.0 11.0,-50.0 l6.0,7.0 11.0,66.0 m-100.0,79.0 l14.0,4.0 20.0,-3.0 l8.0,-19.0 15.0,10.0 l14.0,-1.0 2.0,-22.0 " fill="none" stroke="black" stroke-width="1" /></svg>